<?xml version="1.0" standalone="no"?>
<!DOCTYPE svg PUBLIC "-//W3C//DTD SVG 20010904//EN"
 "http://www.w3.org/TR/2001/REC-SVG-20010904/DTD/svg10.dtd">
<svg version="1.0" xmlns="http://www.w3.org/2000/svg"
 width="260.000000pt" height="260.000000pt" viewBox="0 0 260.000000 260.000000"
 preserveAspectRatio="xMidYMid meet">
<metadata>
Created by potrace 1.11, written by Peter Selinger 2001-2013
</metadata>
<g transform="translate(0.000000,260.000000) scale(0.100000,-0.100000)"
fill="#000000" stroke="none">
<path d="M363 2576 c-90 -29 -156 -71 -220 -139 -62 -65 -96 -123 -122 -211
-21 -67 -21 -85 -21 -926 0 -841 0 -859 21 -926 26 -88 60 -146 122 -211 65
-69 130 -110 222 -139 l76 -24 859 0 859 0 76 24 c92 29 157 70 222 139 62 65
96 123 122 211 21 67 21 85 21 927 l0 858 -24 76 c-29 92 -70 157 -139 222
-65 62 -123 96 -211 122 -67 21 -84 21 -930 21 l-861 -1 -72 -23z m1064 -1096
c189 -586 343 -1066 343 -1067 0 -2 -63 -3 -139 -3 l-140 0 -41 133 c-23 72
-60 193 -84 267 l-42 135 -420 3 -420 2 -84 -270 -83 -270 -134 0 -134 0 7 23
c11 35 495 1532 595 1840 l90 277 172 -2 171 -3 343 -1065z"/>
<path d="M896 2283 c-3 -10 -80 -262 -171 -561 -91 -299 -165 -546 -165 -548
0 -2 156 -4 346 -4 l345 0 -7 23 c-4 12 -81 264 -170 561 -90 296 -165 541
-168 543 -2 2 -7 -4 -10 -14z"/>
</g>
</svg>
